<svg xmlns="http://www.w3.org/2000/svg" viewBox="0 0 13 13"><defs><style>.cls-1{fill:#fff;}</style></defs><title>Recurso 14</title><g id="Capa_2" data-name="Capa 2"><g id="Capa_1-2" data-name="Capa 1"><path class="cls-1" d="M12.94,1.8,11.2.06A.2.2,0,0,0,11.05,0h-10A1.09,1.09,0,0,0,0,1.08V11.92A1.09,1.09,0,0,0,1.08,13H11.92A1.09,1.09,0,0,0,13,11.92V2a.2.2,0,0,0-.06-.15ZM10,.43V3.9a.22.22,0,0,1-.22.22H3.25A.22.22,0,0,1,3,3.9V.43ZM1.73,12.57V7.15a.65.65,0,0,1,.65-.65h8.24a.65.65,0,0,1,.65.65v5.42Zm10.84-.65a.65.65,0,0,1-.65.65H11.7V7.15a1.08,1.08,0,0,0-1.08-1.08H2.38A1.08,1.08,0,0,0,1.3,7.15v5.42H1.08a.65.65,0,0,1-.65-.65V1.08A.65.65,0,0,1,1.08.43H2.6V3.9a.65.65,0,0,0,.65.65h6.5a.65.65,0,0,0,.65-.65V.43H11L12.57,2Z"/><path class="cls-1" d="M8,3.68h1.3a.21.21,0,0,0,.21-.21V1.08A.21.21,0,0,0,9.32.87H8a.21.21,0,0,0-.22.21V3.47A.21.21,0,0,0,8,3.68ZM8.23,1.3H9.1v2H8.23Z"/><path class="cls-1" d="M9.75,9.32H3.25A.21.21,0,0,0,3,9.53a.22.22,0,0,0,.22.22h6.5A.22.22,0,0,0,10,9.53a.21.21,0,0,0-.22-.21Z"/><path class="cls-1" d="M9.75,8H3.25A.21.21,0,0,0,3,8.23a.22.22,0,0,0,.22.22h6.5A.22.22,0,0,0,10,8.23.21.21,0,0,0,9.75,8Z"/><path class="cls-1" d="M9.75,10.62H3.25a.21.21,0,0,0-.22.21.22.22,0,0,0,.22.22h6.5a.22.22,0,0,0,.22-.22.21.21,0,0,0-.22-.21Z"/></g></g></svg>